<svg width="43" height="26" viewBox="0 0 43 26" fill="none" xmlns="http://www.w3.org/2000/svg">
<rect x="0.5" y="0.5" width="42" height="25" rx="7.5" fill="white"/>
<path d="M21.1064 14.5469V15.7021H16.5615V19.1426H15.165V15.7021H10.6455V14.5469H21.1064ZM11.2168 12.7314C13.5083 12.4521 15.0127 11.2778 15.1523 10.1289H11.6104V9.01172H15.165V7.66602H16.5615V9.01172H20.1289V10.1289H16.5869C16.7202 11.2651 18.2183 12.4521 20.5098 12.7314L19.9893 13.8486C18.0913 13.6074 16.6187 12.7759 15.876 11.6714C15.127 12.7886 13.6353 13.6074 11.7246 13.8486L11.2168 12.7314ZM30.8691 7.65332V12.1348H32.5703V13.3154H30.8691V19.1045H29.46V7.65332H30.8691ZM21.8174 15.9688C24.6104 14.5723 26.1211 12.6299 26.4004 10.0146H22.4395V8.84668H27.835C27.8286 12.2173 26.4321 15.1816 22.6172 17.0605L21.8174 15.9688Z" fill="#FF4646"/>
<rect x="0.5" y="0.5" width="42" height="25" rx="7.5" stroke="#FF4646"/>
</svg>
