<svg width="410" height="410" viewBox="0 0 410 410" fill="none" xmlns="http://www.w3.org/2000/svg">
<rect width="410" height="410" fill="white"/>
<path d="M75.7263 252.941C75.7263 253.735 77.8776 332.972 172.861 332.972C201.798 332.972 228.525 322.608 250.705 303.221C272.44 319.853 301.961 332.972 341 332.972V280.217C316.447 280.217 297.39 272.934 282.857 263.166C299.646 233.614 309.467 199.709 309.467 165.278C309.479 109.571 283.535 78 244.917 78C206.3 78 181.548 107.669 181.548 160.54C181.548 197.876 194.199 234.921 215.653 266.072C204.593 274.265 190.481 280.217 172.849 280.217C128.631 280.217 129.625 257.622 129.356 253.081H129.333M247.747 224.242C236.347 203.934 229.589 182.587 229.589 160.54C229.589 159.092 229.765 130.754 244.917 130.754C257.954 130.754 261.426 150.28 261.426 165.278C261.426 186.076 256.457 205.136 247.747 224.242Z" fill="#FF4646"/>
<path d="M106.632 190.027C106.632 200.687 97.982 209.349 87.322 209.349C76.662 209.349 68 200.687 68 190.027C68 179.367 76.65 170.717 87.3101 170.717C97.9701 170.717 106.62 179.367 106.62 190.027" fill="#FF4646"/>
<path d="M165.868 130.791C165.868 141.451 157.215 150.113 146.552 150.113C135.889 150.113 127.236 141.463 127.236 130.791C127.236 120.119 135.889 111.481 146.552 111.481C157.215 111.481 165.868 120.131 165.868 130.791Z" fill="#FF4646"/>
</svg>
