<svg width="26" height="26" viewBox="0 0 26 26" fill="none" xmlns="http://www.w3.org/2000/svg">
<path fill-rule="evenodd" clip-rule="evenodd" d="M2.25 13C2.25 7.06294 7.06294 2.25 13 2.25C18.9371 2.25 23.75 7.06294 23.75 13C23.75 18.9371 18.9371 23.75 13 23.75C7.06294 23.75 2.25 18.9371 2.25 13ZM13 3.75C7.89136 3.75 3.75 7.89136 3.75 13C3.75 18.1086 7.89136 22.25 13 22.25C18.1086 22.25 22.25 18.1086 22.25 13C22.25 7.89136 18.1086 3.75 13 3.75Z" fill="#8B8B8B"/>
<path fill-rule="evenodd" clip-rule="evenodd" d="M9.75 10C9.75 8.20509 11.2051 6.75 13 6.75C14.7949 6.75 16.25 8.20509 16.25 10C16.25 11.7949 14.7949 13.25 13 13.25C11.2051 13.25 9.75 11.7949 9.75 10ZM13 8.25C12.0335 8.25 11.25 9.03351 11.25 10C11.25 10.9665 12.0335 11.75 13 11.75C13.9665 11.75 14.75 10.9665 14.75 10C14.75 9.03351 13.9665 8.25 13 8.25Z" fill="#8B8B8B"/>
<path fill-rule="evenodd" clip-rule="evenodd" d="M11.0007 16.25C8.74923 16.25 6.90615 18.0012 6.76012 20.2154C6.73286 20.6287 6.37571 20.9416 5.96239 20.9144C5.54907 20.8871 5.23611 20.53 5.26337 20.1166C5.46105 17.1194 7.95387 14.75 11.0007 14.75H15.0007C18.0436 14.75 20.5339 17.1131 20.7374 20.1048C20.7655 20.518 20.4533 20.8758 20.04 20.9039C19.6267 20.932 19.2689 20.6198 19.2408 20.2065C19.0905 17.9966 17.2493 16.25 15.0007 16.25H11.0007Z" fill="#8B8B8B"/>
</svg>
