<svg width="26" height="26" viewBox="0 0 26 26" fill="none" xmlns="http://www.w3.org/2000/svg">
<path fill-rule="evenodd" clip-rule="evenodd" d="M3.25 4C3.25 3.58579 3.58579 3.25 4 3.25H12.9958C13.4101 3.25 13.7458 3.58579 13.7458 4C13.7458 4.41421 13.4101 4.75 12.9958 4.75H4.75V21.25H13C13.4142 21.25 13.75 21.5858 13.75 22C13.75 22.4142 13.4142 22.75 13 22.75H4C3.58579 22.75 3.25 22.4142 3.25 22V4Z" fill="#8B8B8B"/>
<path fill-rule="evenodd" clip-rule="evenodd" d="M16.9697 7.96967C17.2626 7.67678 17.7374 7.67678 18.0303 7.96967L22.5303 12.4697C22.8232 12.7626 22.8232 13.2374 22.5303 13.5303L18.0303 18.0303C17.7374 18.3232 17.2626 18.3232 16.9697 18.0303C16.6768 17.7374 16.6768 17.2626 16.9697 16.9697L20.9393 13L16.9697 9.03033C16.6768 8.73744 16.6768 8.26256 16.9697 7.96967Z" fill="#8B8B8B"/>
<path fill-rule="evenodd" clip-rule="evenodd" d="M8.25 12.9961C8.25 12.5819 8.58579 12.2461 9 12.2461H22C22.4142 12.2461 22.75 12.5819 22.75 12.9961C22.75 13.4103 22.4142 13.7461 22 13.7461H9C8.58579 13.7461 8.25 13.4103 8.25 12.9961Z" fill="#8B8B8B"/>
</svg>
