<svg width="118" height="30" viewBox="0 0 118 30" fill="none" xmlns="http://www.w3.org/2000/svg">
<rect opacity="0.1" width="118" height="30" rx="8" fill="#FF4646"/>
<path d="M47.312 7.8H48.656V16.68H47.312V7.8ZM37.536 14.712H38.704C41.328 14.712 43.264 14.632 45.584 14.248L45.728 15.336C43.344 15.736 41.392 15.8 38.704 15.8H37.536V14.712ZM37.504 8.696H44.064V12.696H38.832V15.32H37.536V11.656H42.768V9.784H37.504V8.696ZM43.888 17C46.896 17 48.752 17.944 48.752 19.608C48.752 21.272 46.896 22.232 43.888 22.232C40.864 22.232 39.04 21.272 39.04 19.608C39.04 17.944 40.864 17 43.888 17ZM43.888 18.056C41.68 18.056 40.352 18.616 40.352 19.608C40.352 20.6 41.68 21.176 43.888 21.176C46.096 21.176 47.424 20.6 47.424 19.608C47.424 18.616 46.096 18.056 43.888 18.056ZM53.0707 9.256H62.2548V10.344H53.0707V9.256ZM51.5188 19.128H64.5908V20.248H51.5188V19.128ZM61.6788 9.256H62.9748V11.032C62.9748 13.16 62.9748 15.128 62.3668 18.088L61.0548 17.96C61.6788 15.176 61.6788 13.112 61.6788 11.032V9.256ZM62.0148 13.256V14.248L52.8788 14.744L52.6868 13.64L62.0148 13.256ZM70.409 15.24H83.481V16.328H70.409V15.24ZM76.297 13.08H77.609V15.576H76.297V13.08ZM71.865 17.736H81.865V22.248H80.537V18.824H71.865V17.736ZM72.153 8.12H73.465V9.752H80.457V8.12H81.785V13.528H72.153V8.12ZM73.465 10.792V12.472H80.457V10.792H73.465ZM88.6798 9.032H89.7678V11.624C89.7678 14.824 88.0398 17.944 85.7518 19.16L84.9358 18.104C87.0318 17.048 88.6798 14.264 88.6798 11.624V9.032ZM88.9198 9.032H89.9918V11.624C89.9918 14.168 91.6078 16.808 93.6558 17.832L92.8398 18.888C90.5998 17.688 88.9198 14.728 88.9198 11.624V9.032ZM94.9198 7.784H96.2638V22.248H94.9198V7.784ZM95.9438 13.64H98.6318V14.76H95.9438V13.64Z" fill="#FF4646"/>
<g clip-path="url(#clip0_1012_45855)">
<path d="M23.2504 16.1245C23.5188 16.4833 23.8612 16.7802 24.2545 16.9951C24.6477 17.2099 25.0826 17.3377 25.5295 17.3697C25.9765 17.4017 26.4251 17.3372 26.845 17.1806C27.2648 17.024 27.6461 16.7789 27.9629 16.462L29.8379 14.587C30.4071 13.9976 30.7221 13.2082 30.715 12.3889C30.7079 11.5695 30.3792 10.7857 29.7998 10.2063C29.2204 9.62691 28.4366 9.29825 27.6172 9.29113C26.7979 9.28401 26.0085 9.599 25.4191 10.1682L24.3441 11.237M25.7504 14.8745C25.482 14.5157 25.1395 14.2188 24.7463 14.0039C24.353 13.7891 23.9182 13.6613 23.4712 13.6293C23.0242 13.5973 22.5756 13.6618 22.1558 13.8184C21.7359 13.975 21.3547 14.2201 21.0379 14.537L19.1629 16.412C18.5936 17.0014 18.2786 17.7908 18.2858 18.6101C18.2929 19.4295 18.6215 20.2133 19.2009 20.7927C19.7803 21.3721 20.5641 21.7007 21.3835 21.7078C22.2029 21.715 22.9922 21.4 23.5816 20.8307L24.6504 19.762" stroke="#FF4646" stroke-width="1.25" stroke-linecap="round" stroke-linejoin="round"/>
</g>
<defs>
<clipPath id="clip0_1012_45855">
<rect width="15" height="15" fill="white" transform="translate(18 8)"/>
</clipPath>
</defs>
</svg>
