<svg width="110" height="40" viewBox="0 0 110 40" fill="none" xmlns="http://www.w3.org/2000/svg">
<rect x="0.5" y="0.5" width="109" height="39" rx="7.5" fill="white" stroke="#FF4646"/>
<path d="M36.2969 14.75V16.1094H33.375C33.4062 17.3359 34.5234 18.4219 36.6094 18.8281L35.9219 20.1719C34.3047 19.8359 33.1641 19.0781 32.5391 18.0625C31.9219 19.1719 30.75 20.0078 29.0938 20.3594L28.3594 19.0156C30.4766 18.5938 31.6016 17.4062 31.625 16.1094H28.7188V14.75H31.6406V13.2969H33.375V14.75H36.2969ZM27.8281 21.0938C30.4609 21.1016 33.9688 21.0781 36.9844 20.7031L37.1094 21.9531C35.8906 22.1641 34.625 22.2969 33.3906 22.3828V26.9531H31.6406V22.4766C30.3516 22.5234 29.125 22.5312 28.0469 22.5312L27.8281 21.0938ZM37.9062 27.375V13.2812H39.625V27.375H37.9062ZM54.5469 24.2344V25.6406H41.6406V24.2344H47.1719V20.9688H48.8906V24.2344H54.5469ZM42.0156 19.875C44.9688 19.3984 47.0859 17.2812 47.0938 15.1562V14.125H48.9375V15.1562C48.9375 17.2891 51.0703 19.3984 54.0469 19.875L53.2969 21.3125C50.9141 20.8594 48.9531 19.4922 48.0156 17.6406C47.0859 19.4844 45.1484 20.8672 42.7656 21.3125L42.0156 19.875ZM66.5312 13.2656V18.8906H68.7031V20.3281H66.5312V27.3906H64.8125V13.2656H66.5312ZM55.3906 16.8281V15.4375H58.7344V13.4688H60.4688V15.4375H63.7188V16.8281H55.3906ZM56.0469 21.0781C56.0312 19.125 57.5469 17.7422 59.6094 17.75C61.6406 17.7422 63.1484 19.125 63.1562 21.0781C63.1484 23.0234 61.6406 24.3906 59.6094 24.3906C57.5469 24.3906 56.0312 23.0234 56.0469 21.0781ZM57.7031 21.0781C57.6953 22.2266 58.5 22.9609 59.6094 22.9531C60.6953 22.9609 61.4844 22.2266 61.5 21.0781C61.4844 19.9297 60.6953 19.1719 59.6094 19.1719C58.5 19.1719 57.6953 19.9297 57.7031 21.0781ZM81.0938 13.2656V27.3906H79.3438V13.2656H81.0938ZM69.3906 23.5C73.0938 21.7422 74.7969 19.3516 75.1094 16.1406H70.1094V14.7656H76.875C76.875 18.9688 75.2422 22.5391 70.2969 24.8906L69.3906 23.5Z" fill="#FF4646"/>
</svg>
