<svg width="30" height="30" viewBox="0 0 30 30" fill="none" xmlns="http://www.w3.org/2000/svg">
<rect width="30" height="30" rx="8" fill="#242424" fill-opacity="0.25"/>
<path fill-rule="evenodd" clip-rule="evenodd" d="M8.875 9.8125C8.875 9.50184 9.12684 9.25 9.4375 9.25H20.6875C20.9982 9.25 21.25 9.50184 21.25 9.8125V22.5625C21.25 22.8732 20.9982 23.125 20.6875 23.125H9.4375C9.12684 23.125 8.875 22.8732 8.875 22.5625V9.8125ZM10 10.375V22H20.125V10.375H10Z" fill="white"/>
<path fill-rule="evenodd" clip-rule="evenodd" d="M13.5625 13C13.8732 13 14.125 13.2518 14.125 13.5625V18.4375C14.125 18.7482 13.8732 19 13.5625 19C13.2518 19 13 18.7482 13 18.4375V13.5625C13 13.2518 13.2518 13 13.5625 13Z" fill="white"/>
<path fill-rule="evenodd" clip-rule="evenodd" d="M16.5625 13C16.8732 13 17.125 13.2518 17.125 13.5625V18.4375C17.125 18.7482 16.8732 19 16.5625 19C16.2518 19 16 18.7482 16 18.4375V13.5625C16 13.2518 16.2518 13 16.5625 13Z" fill="white"/>
<path fill-rule="evenodd" clip-rule="evenodd" d="M7 9.8125C7 9.50184 7.25184 9.25 7.5625 9.25H22.5625C22.8732 9.25 23.125 9.50184 23.125 9.8125C23.125 10.1232 22.8732 10.375 22.5625 10.375H7.5625C7.25184 10.375 7 10.1232 7 9.8125Z" fill="white"/>
<path fill-rule="evenodd" clip-rule="evenodd" d="M12.8026 7.29212C12.9014 7.11198 13.0905 7 13.2959 7H16.8539C17.0611 7 17.2514 7.11384 17.3494 7.29632L18.558 9.54632C18.6517 9.72065 18.6468 9.93135 18.5453 10.1012C18.4437 10.271 18.2604 10.375 18.0625 10.375H12.0625C11.8638 10.375 11.6798 10.2701 11.5785 10.0991C11.4772 9.92813 11.4737 9.71639 11.5692 9.54212L12.8026 7.29212ZM13.629 8.125L13.0123 9.25H17.1218L16.5175 8.125H13.629Z" fill="white"/>
</svg>
