<svg width="110" height="40" viewBox="0 0 110 40" fill="none" xmlns="http://www.w3.org/2000/svg">
<rect width="110" height="40" rx="8" fill="#FF4646"/>
<path d="M31.0547 15.7656C31.0469 17.6406 32.1719 19.4688 34.3672 20.2188L33.4141 21.5781C31.8906 21.0078 30.8047 19.9062 30.2031 18.5156C29.6016 20.0703 28.4453 21.2891 26.7891 21.9062L25.8672 20.5312C28.1406 19.7656 29.2969 17.8125 29.3047 15.75V14.1406H31.0547V15.7656ZM28.4297 27.1094V22.625H30.1953V25.7031H38.0547V27.1094H28.4297ZM33.1953 17.8125V16.3906H36.0078V13.2812H37.7422V23.7656H36.0078V17.8125H33.1953ZM45.8203 14.25V15.6406H41.9453V17.0156H45.6797V18.3438H41.9453V19.8281C43.6641 19.8125 44.8672 19.7422 46.2422 19.4844L46.4297 20.8906C44.7656 21.2031 43.4062 21.2578 41.2109 21.25H40.2734V14.25H45.8203ZM42.1484 23.9062V22.5H51.8203V27.3906H50.0859V23.9062H42.1484ZM47.0703 21.7656V13.5469H48.6953V16.8125H50.1641V13.2812H51.8203V21.875H50.1641V18.2031H48.6953V21.7656H47.0703ZM62.4297 15.5C62.4141 17.2656 63.5625 18.9531 65.7578 19.6562L64.8828 21.0156C63.2969 20.5078 62.1797 19.4453 61.5625 18.1094C60.9453 19.5547 59.7969 20.6875 58.1484 21.2344L57.2578 19.8594C59.5391 19.1172 60.6797 17.2969 60.6797 15.3594V14H62.4297V15.5ZM59.1016 23.8281V22.4375H68.5078V27.3906H66.7734V23.8281H59.1016ZM66.7734 21.8125V13.2656H68.5078V16.8125H70.4766V18.2656H68.5078V21.8125H66.7734ZM83.3516 13.2656V27.3906H81.6953V13.2656H83.3516ZM70.9453 23.375C72.9844 22.1328 73.8828 19.5859 73.8828 17.125V16.1875H71.4297V14.7812H77.8359V16.1875H75.5547V17.125C75.5547 19.5078 76.4062 21.8984 78.4297 23.0625L77.3984 24.3438C76.0938 23.5703 75.2266 22.2266 74.7344 20.6172C74.2344 22.3594 73.3359 23.8438 72.0078 24.6719L70.9453 23.375ZM76.8047 19.5938V18.1875H78.8359V13.5312H80.4766V26.7031H78.8359V19.5938H76.8047Z" fill="white"/>
</svg>
