<svg width="110" height="40" viewBox="0 0 110 40" fill="none" xmlns="http://www.w3.org/2000/svg">
<rect x="0.5" y="0.5" width="109" height="39" rx="7.5" fill="white" stroke="#C2C2C2"/>
<path d="M32.875 15.5V14H31.125V15.3594C31.125 17.2969 29.9844 19.1172 27.7031 19.8594L28.5938 21.2344C30.2422 20.6875 31.3906 19.5547 32.0078 18.1094C32.625 19.4453 33.7422 20.5078 35.3281 21.0156L36.2031 19.6562C34.0078 18.9531 32.8594 17.2656 32.875 15.5ZM29.5469 23.8281H37.2188V27.3906H38.9531V22.4375H29.5469V23.8281ZM37.2188 21.8125H38.9531V18.2656H40.9219V16.8125H38.9531V13.2656H37.2188V21.8125ZM53.7969 13.2656H52.1406V27.3906H53.7969V13.2656ZM41.3906 23.375L42.4531 24.6719C43.7812 23.8438 44.6797 22.3594 45.1797 20.6172C45.6719 22.2266 46.5391 23.5703 47.8438 24.3438L48.875 23.0625C46.8516 21.8984 46 19.5078 46 17.125V16.1875H48.2812V14.7812H41.875V16.1875H44.3281V17.125C44.3281 19.5859 43.4297 22.1328 41.3906 23.375ZM47.25 19.5938H49.2812V26.7031H50.9219V13.5312H49.2812V18.1875H47.25V19.5938ZM66.5312 13.2656H64.8125V27.3906H66.5312V20.3281H68.7031V18.8906H66.5312V13.2656ZM55.3906 16.8281H63.7188V15.4375H60.4688V13.4688H58.7344V15.4375H55.3906V16.8281ZM56.0469 21.0781C56.0312 23.0234 57.5469 24.3906 59.6094 24.3906C61.6406 24.3906 63.1484 23.0234 63.1562 21.0781C63.1484 19.125 61.6406 17.7422 59.6094 17.75C57.5469 17.7422 56.0312 19.125 56.0469 21.0781ZM57.7031 21.0781C57.6953 19.9297 58.5 19.1719 59.6094 19.1719C60.6953 19.1719 61.4844 19.9297 61.5 21.0781C61.4844 22.2266 60.6953 22.9609 59.6094 22.9531C58.5 22.9609 57.6953 22.2266 57.7031 21.0781ZM81.0938 13.2656H79.3438V27.3906H81.0938V13.2656ZM69.3906 23.5L70.2969 24.8906C75.2422 22.5391 76.875 18.9688 76.875 14.7656H70.1094V16.1406H75.1094C74.7969 19.3516 73.0938 21.7422 69.3906 23.5Z" fill="#C2C2C2"/>
</svg>
