<svg width="536" height="89" viewBox="0 0 536 89" fill="none" xmlns="http://www.w3.org/2000/svg">
<g filter="url(#filter0_dd_1744_11938)">
<rect x="5" y="5" width="526" height="76" rx="14.1144" fill="white"/>
<rect width="33.8747" height="33.8747" transform="translate(143.062 26.1716)" fill="white"/>
<path fill-rule="evenodd" clip-rule="evenodd" d="M175.578 43.4702C175.578 42.3193 175.475 41.2126 175.283 40.1501H159.996V46.4288H168.732C168.355 48.4578 167.212 50.1768 165.493 51.3278V55.4005H170.738C173.808 52.5747 175.578 48.4135 175.578 43.4702Z" fill="#4285F4"/>
<path fill-rule="evenodd" clip-rule="evenodd" d="M160.001 59.3405C164.384 59.3405 168.058 57.887 170.744 55.408L165.498 51.3353C164.044 52.3092 162.185 52.8847 160.001 52.8847C155.774 52.8847 152.195 50.0294 150.919 46.1929H145.496V50.3983C148.167 55.7031 153.656 59.3405 160.001 59.3405Z" fill="#34A853"/>
<path fill-rule="evenodd" clip-rule="evenodd" d="M150.914 46.1901C150.589 45.2162 150.405 44.1759 150.405 43.1061C150.405 42.0363 150.589 40.996 150.914 40.0221V35.8167H145.491C144.392 38.0079 143.765 40.4869 143.765 43.1061C143.765 45.7253 144.392 48.2043 145.491 50.3956L150.914 46.1901Z" fill="#FBBC05"/>
<path fill-rule="evenodd" clip-rule="evenodd" d="M160.001 33.3295C162.384 33.3295 164.524 34.1485 166.206 35.7569L170.862 31.1014C168.051 28.4822 164.376 26.8738 160.001 26.8738C153.656 26.8738 148.167 30.5111 145.496 35.8159L150.919 40.0214C152.195 36.1848 155.774 33.3295 160.001 33.3295Z" fill="#EA4335"/>
<path d="M210.683 38.0867C210.023 35.9993 208.424 34.7053 206.093 34.7175C203.114 34.7053 200.832 37.0491 200.819 41.3337C200.832 45.6062 203.09 47.9622 206.215 47.95C209.035 47.9622 210.902 46.1677 210.951 43.3357H206.605V41.114H213.563V43.116C213.563 47.5959 210.487 50.4158 206.19 50.4158C201.405 50.4158 198.158 46.9368 198.158 41.3337C198.158 35.6941 201.503 32.2517 206.068 32.2517C209.889 32.2517 212.843 34.6321 213.441 38.0867H210.683ZM222.06 50.4402C218.3 50.4402 215.846 47.7058 215.858 43.6042C215.846 39.4783 218.3 36.7439 222.06 36.7439C225.795 36.7439 228.236 39.4783 228.236 43.6042C228.236 47.7058 225.795 50.4402 222.06 50.4402ZM218.471 43.6042C218.471 46.1311 219.63 48.2673 222.06 48.2673C224.452 48.2673 225.6 46.1311 225.6 43.6042C225.6 41.0652 224.452 38.9045 222.06 38.8923C219.63 38.9045 218.471 41.0652 218.471 43.6042ZM236.415 50.4402C232.655 50.4402 230.202 47.7058 230.214 43.6042C230.202 39.4783 232.655 36.7439 236.415 36.7439C240.15 36.7439 242.592 39.4783 242.592 43.6042C242.592 47.7058 240.15 50.4402 236.415 50.4402ZM232.826 43.6042C232.826 46.1311 233.986 48.2673 236.415 48.2673C238.808 48.2673 239.955 46.1311 239.955 43.6042C239.955 41.0652 238.808 38.9045 236.415 38.8923C233.986 38.9045 232.826 41.0652 232.826 43.6042ZM250.722 55.4207C247.377 55.4207 245.167 53.9436 244.936 51.4656H247.597C247.853 52.7229 249.025 53.3333 250.746 53.321C252.821 53.3333 254.127 52.4299 254.14 50.3669V47.7546H253.969C253.505 48.6091 252.553 49.9763 250.111 49.9763C246.986 49.9763 244.569 47.6448 244.569 43.4089C244.569 39.1731 246.95 36.7439 250.136 36.7439C252.602 36.7439 253.505 38.2332 253.993 39.0632H254.164V36.9148H256.703V50.4646C256.715 53.8704 254.14 55.4207 250.722 55.4207ZM247.23 43.4578C247.218 46.0579 248.415 47.8157 250.697 47.8279C252.919 47.8157 254.164 46.1921 254.164 43.4578C254.164 40.7722 252.943 38.9534 250.697 38.9656C248.39 38.9534 247.218 40.9187 247.23 43.4578ZM262.489 32.4958V50.1716H259.877V32.4958H262.489ZM271.376 50.4402C267.47 50.4402 265.065 47.7424 265.077 43.6287C265.065 39.5515 267.506 36.7439 271.205 36.7439C274.22 36.7439 277.089 38.6116 277.089 43.4089V44.3367H267.665C267.738 46.8635 269.228 48.2917 271.4 48.2917C272.877 48.2917 273.842 47.657 274.281 46.8513H276.918C276.332 48.9998 274.293 50.4402 271.376 50.4402ZM267.677 42.3835H274.525C274.525 40.3694 273.219 38.8801 271.23 38.8923C269.142 38.8801 267.787 40.5159 267.677 42.3835ZM298.915 47.6814V49.6345H278.896V47.6814H287.709V43.8484H281.337V36.8904H294.179V33.8142H281.288V31.9099H296.474V38.7458H283.632V41.9441H296.986V43.8484H290.004V47.6814H298.915ZM314.638 35.9382C314.613 39.9299 317.03 43.9583 320.424 45.4597L319.032 47.2908C316.518 46.0945 314.528 43.6409 313.502 40.6501C312.489 43.8606 310.475 46.4973 307.851 47.7791L306.435 45.8259C309.877 44.3 312.294 40.113 312.294 35.9382V32.2029H314.638V35.9382ZM322.401 52.2957V30.3718H324.721V52.2957H322.401ZM335.854 34.3025C335.841 37.0979 337.782 39.7468 341.127 40.8699L339.955 42.6765C337.477 41.822 335.658 40.113 334.706 37.9646C333.754 40.3206 331.85 42.1882 329.286 43.0916L328.041 41.2849C331.459 40.1252 333.522 37.2932 333.534 34.2781V33.6921H328.725V31.8123H340.565V33.6921H335.854V34.3025ZM330.946 46.5095V44.6296H345.399V52.2468H343.08V46.5095H330.946ZM343.08 43.5554V30.3718H345.399V35.9871H348.573V37.9402H345.399V43.5554H343.08ZM366.859 30.3718V39.2341H370.375V41.1628H366.859V52.2468H364.564V30.3718H366.859ZM349.696 35.6941V33.7898H355.092V30.6648H357.411V33.7898H362.66V35.6941H349.696ZM350.819 42.3835C350.819 39.405 353.114 37.3054 356.264 37.3054C359.401 37.3054 361.696 39.405 361.708 42.3835C361.696 45.3865 359.401 47.4739 356.264 47.4861C353.114 47.4739 350.819 45.3865 350.819 42.3835ZM353.041 42.3835C353.029 44.2878 354.396 45.5574 356.264 45.533C358.119 45.5574 359.474 44.2878 359.486 42.3835C359.474 40.5159 358.119 39.2219 356.264 39.2097C354.396 39.2219 353.029 40.5159 353.041 42.3835ZM389.613 30.3718V52.2468H387.27V30.3718H389.613ZM371.645 46.3875C377.455 43.6165 380.299 39.6736 380.751 34.571H372.694V32.7156H383.095C383.095 39.1243 380.373 44.6663 372.865 48.2673L371.645 46.3875Z" fill="#242424"/>
</g>
<defs>
<filter id="filter0_dd_1744_11938" x="0.765668" y="0.765668" width="534.469" height="87.2916" filterUnits="userSpaceOnUse" color-interpolation-filters="sRGB">
<feFlood flood-opacity="0" result="BackgroundImageFix"/>
<feColorMatrix in="SourceAlpha" type="matrix" values="0 0 0 0 0 0 0 0 0 0 0 0 0 0 0 0 0 0 127 0" result="hardAlpha"/>
<feOffset dy="2.82289"/>
<feGaussianBlur stdDeviation="2.11717"/>
<feColorMatrix type="matrix" values="0 0 0 0 0 0 0 0 0 0 0 0 0 0 0 0 0 0 0.168 0"/>
<feBlend mode="normal" in2="BackgroundImageFix" result="effect1_dropShadow_1744_11938"/>
<feColorMatrix in="SourceAlpha" type="matrix" values="0 0 0 0 0 0 0 0 0 0 0 0 0 0 0 0 0 0 127 0" result="hardAlpha"/>
<feOffset/>
<feGaussianBlur stdDeviation="2.11717"/>
<feColorMatrix type="matrix" values="0 0 0 0 0 0 0 0 0 0 0 0 0 0 0 0 0 0 0.084 0"/>
<feBlend mode="normal" in2="effect1_dropShadow_1744_11938" result="effect2_dropShadow_1744_11938"/>
<feBlend mode="normal" in="SourceGraphic" in2="effect2_dropShadow_1744_11938" result="shape"/>
</filter>
</defs>
</svg>
