<svg width="45" height="45" viewBox="0 0 45 45" fill="none" xmlns="http://www.w3.org/2000/svg">
<circle cx="22.5" cy="22.5" r="22" fill="white" stroke="#8B8B8B"/>
<path d="M21.6289 25.75C21.6367 24.875 21.7344 24.1562 21.9219 23.5938C22.1094 23.0312 22.375 22.5664 22.7188 22.1992C23.0703 21.8242 23.543 21.4453 24.1367 21.0625C24.7539 20.6641 25.2188 20.2305 25.5312 19.7617C25.8516 19.2852 26.0117 18.7344 26.0117 18.1094C26.0117 17.5469 25.875 17.0469 25.6016 16.6094C25.3359 16.1641 24.9688 15.8242 24.5 15.5898C24.0312 15.3477 23.5117 15.2266 22.9414 15.2266C22.4023 15.2188 21.8984 15.3359 21.4297 15.5781C20.9688 15.8125 20.5938 16.1602 20.3047 16.6211C20.0156 17.0742 19.8555 17.625 19.8242 18.2734H18.1367C18.1602 17.3828 18.3867 16.5977 18.8164 15.918C19.2461 15.2383 19.8203 14.7148 20.5391 14.3477C21.2578 13.9805 22.0586 13.7969 22.9414 13.7969C23.8555 13.7969 24.668 13.9844 25.3789 14.3594C26.0898 14.7344 26.6406 15.2578 27.0312 15.9297C27.4297 16.5938 27.6289 17.3438 27.6289 18.1797C27.6289 19.0156 27.4336 19.75 27.043 20.3828C26.6602 21.0078 26.0742 21.5781 25.2852 22.0938C24.7695 22.4219 24.3672 22.75 24.0781 23.0781C23.7969 23.3984 23.5898 23.7695 23.457 24.1914C23.332 24.6055 23.2617 25.125 23.2461 25.75V26.1484H21.6289V25.75ZM21.2305 29.875C21.2305 29.5312 21.3555 29.2383 21.6055 28.9961C21.8555 28.7461 22.1523 28.6172 22.4961 28.6094C22.8398 28.6172 23.1328 28.7461 23.375 28.9961C23.6172 29.2383 23.7383 29.5312 23.7383 29.875C23.7383 30.2109 23.6172 30.5039 23.375 30.7539C23.1406 30.9961 22.8555 31.1172 22.5195 31.1172C22.168 31.1172 21.8633 30.9961 21.6055 30.7539C21.3555 30.5039 21.2305 30.2109 21.2305 29.875Z" fill="#8B8B8B"/>
</svg>
