<svg width="34" height="32" viewBox="0 0 34 32" fill="none" xmlns="http://www.w3.org/2000/svg">
<path d="M1.5 21.4407C1.5 21.5369 1.76203 31.1719 13.2172 31.1719C16.7086 31.1719 19.9309 29.9141 22.6079 27.5552C25.2282 29.5756 28.7905 31.1719 33.5 31.1719V24.7581C30.5397 24.7581 28.2416 23.8744 26.4888 22.6843C28.5143 19.0926 29.697 14.9699 29.697 10.7831C29.697 4.00946 26.5667 0.171875 21.9103 0.171875C17.2539 0.171875 14.2688 3.77785 14.2688 10.2095C14.2688 14.749 15.795 19.2529 18.3835 23.0406C17.0485 24.0383 15.3488 24.7616 13.2207 24.7616C7.88796 24.7616 8.00836 22.0144 7.97649 21.4621M22.2573 17.9559C20.8834 15.4866 20.0654 12.8926 20.0654 10.213C20.0654 10.0349 20.0867 6.58923 21.9138 6.58923C23.486 6.58923 23.9039 8.96234 23.9039 10.7867C23.9039 13.3166 23.3055 15.6327 22.2538 17.9559H22.2573Z" fill="#FF4646"/>
<path d="M3 16.1719C4.38071 16.1719 5.5 15.0526 5.5 13.6719C5.5 12.2912 4.38071 11.1719 3 11.1719C1.61929 11.1719 0.5 12.2912 0.5 13.6719C0.5 15.0526 1.61929 16.1719 3 16.1719Z" fill="#FF4646"/>
<path d="M9.99999 9.17188C11.3807 9.17188 12.5 8.05259 12.5 6.67188C12.5 5.29116 11.3807 4.17188 9.99999 4.17188C8.61928 4.17188 7.5 5.29116 7.5 6.67188C7.5 8.05259 8.61928 9.17188 9.99999 9.17188Z" fill="#FF4646"/>
</svg>
