<svg width="20" height="20" viewBox="0 0 20 20" fill="none" xmlns="http://www.w3.org/2000/svg">
<path d="M1.51465 12.6641C1.51465 12.717 1.65808 18 7.99102 18C9.92037 18 11.7024 17.309 13.1812 16.0164C14.6303 17.1253 16.5986 18 19.2015 18V14.4827C17.5645 14.4827 16.2939 13.9971 15.3249 13.3457C16.4443 11.3754 17.0991 9.1148 17.0991 6.81919C17.0999 3.10496 15.3701 1 12.7953 1C10.2205 1 8.57022 2.97812 8.57022 6.50325C8.57022 8.99263 9.41367 11.4626 10.8441 13.5395C10.1067 14.0858 9.16578 14.4827 7.99025 14.4827C5.04204 14.4827 5.1083 12.9761 5.09037 12.6734H5.08882M12.9839 10.7505C12.2239 9.3965 11.7733 7.97322 11.7733 6.50325C11.7733 6.40676 11.785 4.51735 12.7953 4.51735C13.6645 4.51735 13.896 5.81923 13.896 6.81919C13.896 8.2059 13.5647 9.47666 12.9839 10.7505Z" fill="#FF4646"/>
<path d="M3.57576 8.46851C3.57576 9.17926 2.99902 9.75679 2.28828 9.75679C1.57753 9.75679 1 9.17926 1 8.46851C1 7.75776 1.57673 7.18103 2.28748 7.18103C2.99823 7.18103 3.57496 7.75776 3.57496 8.46851" fill="#FF4646"/>
<path d="M7.52498 4.51908C7.52498 5.22982 6.94806 5.80736 6.2371 5.80736C5.52613 5.80736 4.94922 5.23062 4.94922 4.51908C4.94922 3.80753 5.52613 3.2316 6.2371 3.2316C6.94806 3.2316 7.52498 3.80833 7.52498 4.51908Z" fill="#FF4646"/>
</svg>
