<svg width="26" height="26" viewBox="0 0 26 26" fill="none" xmlns="http://www.w3.org/2000/svg">
<path d="M11.6196 14.1113C11.9775 14.5897 12.4341 14.9856 12.9584 15.2721C13.4828 15.5585 14.0626 15.7289 14.6585 15.7716C15.2545 15.8143 15.8526 15.7283 16.4124 15.5194C16.9722 15.3106 17.4806 14.9839 17.903 14.5613L20.403 12.0613C21.162 11.2755 21.5819 10.2229 21.5724 9.13046C21.5629 8.03797 21.1247 6.99292 20.3522 6.22039C19.5797 5.44785 18.5346 5.00965 17.4421 5.00016C16.3496 4.99066 15.2971 5.41064 14.5113 6.16963L13.078 7.59463M14.953 12.4446C14.5951 11.9662 14.1385 11.5703 13.6142 11.2838C13.0898 10.9974 12.51 10.827 11.9141 10.7844C11.3181 10.7417 10.72 10.8277 10.1602 11.0365C9.60038 11.2453 9.09204 11.5721 8.66963 11.9946L6.16963 14.4946C5.41064 15.2805 4.99066 16.333 5.00016 17.4255C5.00965 18.518 5.44785 19.563 6.22039 20.3355C6.99292 21.1081 8.03797 21.5463 9.13046 21.5558C10.2229 21.5653 11.2755 21.1453 12.0613 20.3863L13.4863 18.9613" stroke="white" stroke-width="1.66667" stroke-linecap="round" stroke-linejoin="round"/>
</svg>
