<svg width="152" height="142" viewBox="0 0 152 142" fill="none" xmlns="http://www.w3.org/2000/svg">
<path d="M4.57227 97.0371C4.57227 97.4773 5.76555 141.429 58.4514 141.429C74.5023 141.429 89.3274 135.68 101.63 124.927C113.686 134.152 130.061 141.429 151.715 141.429V112.167C138.096 112.167 127.525 108.127 119.464 102.708C128.777 86.3164 134.225 67.5097 134.225 48.4117C134.231 17.5119 119.84 0 98.4197 0C76.999 0 63.2699 16.4566 63.2699 45.7833C63.2699 66.4933 70.2869 87.0414 82.1872 104.32C76.0522 108.865 68.2246 112.167 58.4449 112.167C33.9178 112.167 34.4691 99.6331 34.3199 97.1148H34.3069M99.9891 81.1178C93.666 69.8533 89.9176 58.0125 89.9176 45.7833C89.9176 44.9806 90.0149 29.262 98.4197 29.262C105.651 29.262 107.577 40.0928 107.577 48.4117C107.577 59.9482 104.821 70.5201 99.9891 81.1178Z" fill="#FF4646"/>
<path d="M21.7147 62.1396C21.7147 68.0525 16.9167 72.8572 11.0037 72.8572C5.0908 72.8572 0.286133 68.0525 0.286133 62.1396C0.286133 56.2266 5.08417 51.4286 10.9971 51.4286C16.91 51.4286 21.7081 56.2266 21.7081 62.1396" fill="#FF4646"/>
<path d="M54.5721 29.2824C54.5721 35.1953 49.7726 40 43.8578 40C37.9431 40 33.1436 35.2019 33.1436 29.2824C33.1436 23.3628 37.9431 18.5714 43.8578 18.5714C49.7726 18.5714 54.5721 23.3694 54.5721 29.2824Z" fill="#FF4646"/>
</svg>
