<svg width="130" height="33" viewBox="0 0 130 33" fill="none" xmlns="http://www.w3.org/2000/svg">
<path d="M116.265 32.942L110.236 33L109.995 7.67664L116.024 7.61857L116.042 9.49416C117.317 7.87988 119.063 7.06112 121.284 7.0437C122.506 7.03209 123.647 7.25855 124.704 7.72309C125.762 8.18764 126.685 8.82058 127.472 9.62191C128.26 10.4291 128.871 11.3756 129.318 12.4672C129.759 13.5589 129.988 14.7319 129.999 15.9862C130.011 17.2404 129.806 18.4018 129.382 19.4818C128.959 20.5619 128.366 21.5084 127.608 22.333C126.849 23.1517 125.95 23.7963 124.91 24.2666C123.87 24.737 122.742 24.9809 121.519 24.9867C119.386 25.0041 117.599 24.2957 116.165 22.8614L116.265 32.942ZM123.705 16.05C123.699 15.5216 123.6 15.0222 123.406 14.5519C123.212 14.0815 122.935 13.6751 122.577 13.3266C122.219 12.9782 121.801 12.7053 121.319 12.4963C120.837 12.293 120.32 12.1943 119.768 12.2001C119.233 12.2059 118.734 12.3105 118.269 12.5079C117.805 12.7111 117.399 12.9898 117.059 13.3441C116.718 13.6983 116.442 14.1106 116.236 14.5867C116.03 15.0629 115.93 15.5623 115.936 16.0907C115.942 16.6191 116.048 17.1127 116.248 17.5714C116.453 18.0301 116.735 18.4308 117.094 18.7676C117.452 19.1044 117.87 19.3773 118.352 19.5806C118.833 19.7838 119.339 19.8825 119.874 19.8767C120.408 19.8709 120.908 19.7664 121.372 19.5689C121.837 19.3657 122.242 19.087 122.583 18.7328C122.924 18.3785 123.2 17.9721 123.406 17.5075C123.605 17.0372 123.711 16.5552 123.705 16.05Z" fill="#FF4646"/>
<path d="M6.53508 12.7459L14.4982 2.50272H22.5613L12.6 14.2615L23.4957 27.3325H15.033L6.53508 16.5668V27.3325H0V2.50272H6.53508V12.7459Z" fill="#FF4646"/>
<path d="M35.0145 10.4406H41.0794V27.3326H35.0145V25.457C33.7274 27.0597 31.982 27.861 29.7841 27.861C28.5382 27.861 27.3981 27.6346 26.352 27.1874C25.3059 26.7403 24.395 26.1074 23.6192 25.2944C22.8435 24.4815 22.2382 23.5292 21.8033 22.4317C21.3684 21.3342 21.1509 20.138 21.1509 18.8431C21.1509 17.6411 21.3625 16.4913 21.7856 15.3996C22.2088 14.3138 22.7965 13.3615 23.5546 12.5485C24.3127 11.7356 25.2119 11.0968 26.2521 10.6207C27.2981 10.1503 28.45 9.91223 29.7194 9.91223C31.8527 9.91223 33.6217 10.6497 35.0204 12.1188V10.4406H35.0145ZM27.4157 18.8373C27.4157 19.3889 27.5156 19.8941 27.7154 20.3703C27.9152 20.8464 28.1856 21.2529 28.5323 21.6071C28.879 21.9555 29.2904 22.2342 29.7664 22.4317C30.2425 22.6291 30.7596 22.7278 31.3179 22.7278C31.8527 22.7278 32.3581 22.6291 32.8342 22.4317C33.3102 22.2342 33.7216 21.9613 34.0683 21.6071C34.415 21.2529 34.6912 20.8522 34.9028 20.3877C35.1144 19.9289 35.2202 19.4354 35.2202 18.9069C35.2202 18.3785 35.1144 17.8791 34.9028 17.4088C34.6912 16.9384 34.415 16.5262 34.0683 16.1719C33.7216 15.8177 33.3102 15.5448 32.8342 15.3474C32.3581 15.15 31.8527 15.0512 31.3179 15.0512C30.7596 15.0512 30.2483 15.15 29.7664 15.3474C29.2904 15.5448 28.879 15.8177 28.5323 16.1719C28.1856 16.5204 27.9152 16.921 27.7154 17.374C27.5156 17.8269 27.4157 18.3088 27.4157 18.8373Z" fill="#FF4646"/>
<path d="M50.6858 15.5488V27.4701H44.6503V15.5488H42.6522V10.5782H44.6503V5.50302H50.6858V10.5782H54.1179V15.5488H50.6858Z" fill="#FF4646"/>
<path d="M102.061 27.3326H108.614C108.614 27.3326 107.397 24.8763 107.144 24.3827C106.598 23.3201 105.881 21.909 105.14 20.3412C105.375 20.016 105.611 19.685 105.834 19.3424C108.331 15.5448 110.482 9.72056 108.314 5.78356C107.209 3.76861 105.211 2.65951 102.69 2.65951H102.684C99.3869 2.65951 97.7179 4.23315 96.8951 5.55129C94.9028 8.75664 95.9959 13.7563 98.2762 19.3134C96.3721 21.0786 94.086 22.24 91.7352 22.0484C90.1191 21.9206 89.0142 21.4445 88.3501 20.5851C87.4569 19.4237 87.3981 17.641 87.4862 16.5958L87.4745 16.0035C87.404 14.2789 86.9867 12.8969 85.9935 11.84C84.8945 10.6671 83.2667 10.0806 81.1098 10.0806C79.9756 10.0806 78.9883 10.249 78.142 10.5916C77.2958 10.9342 76.4671 11.5962 75.6443 12.5833V0H69.6147V27.3326H75.6443V18.3088C75.6443 17.1881 75.9147 16.3287 76.4612 15.7248C77.0078 15.1209 77.7894 14.8189 78.812 14.8189C79.5642 14.8189 80.2107 15.0512 80.7455 15.5099C81.0569 15.7945 81.2803 16.2009 81.4096 16.7294L81.6505 18.8198C81.8268 20.4631 82.3499 22.3677 83.631 24.0517C84.8064 25.5963 87.0807 27.5009 91.2592 27.8319C94.5385 28.0932 97.8354 27.0016 100.78 24.8008C101.144 25.5324 101.514 26.2699 101.89 27.0074L102.061 27.3326ZM103.366 7.99014C103.771 8.45468 103.947 10.9168 102.372 14.5983C100.862 9.45926 101.72 8.08886 101.72 8.08886C101.744 8.0366 101.914 7.65915 102.319 7.55463C102.696 7.4443 103.125 7.62431 103.366 7.99014Z" fill="#FF4646"/>
<path d="M68.1306 15.9049C67.0845 15.2022 66.0325 14.8538 64.963 14.8538C64.387 14.8538 63.8464 14.9525 63.3468 15.15C62.8473 15.3474 62.4065 15.6261 62.0304 15.992C61.6484 16.352 61.3604 16.7817 61.1489 17.2753C60.9373 17.7688 60.8315 18.3263 60.8315 18.936C60.8315 19.5283 60.9373 20.0741 61.1489 20.5677C61.3604 21.0613 61.6484 21.491 62.0128 21.851C62.3771 22.211 62.8179 22.4956 63.3292 22.693C63.8405 22.8904 64.387 22.9891 64.963 22.9891C66.0972 22.9891 67.1492 22.6059 68.1306 21.8394V26.9087C66.6437 27.5475 65.2333 27.861 63.8992 27.861C62.6533 27.861 61.4721 27.652 60.3496 27.2339C59.2271 26.8158 58.2339 26.2177 57.3818 25.4396C56.5238 24.6615 55.8421 23.7266 55.3308 22.6407C54.8195 21.5549 54.5668 20.3412 54.5668 18.9999C54.5668 17.6585 54.8136 16.4391 55.3014 15.33C55.7892 14.2209 56.4591 13.2686 57.2995 12.4672C58.1458 11.6659 59.1507 11.0388 60.3144 10.5916C61.478 10.1387 62.7297 9.91806 64.0638 9.91806C65.533 9.91806 66.8847 10.2258 68.1306 10.8413V15.9049Z" fill="#FF4646"/>
</svg>
