<svg width="82" height="18" viewBox="0 0 82 18" fill="none" xmlns="http://www.w3.org/2000/svg">
<rect x="0.5" y="0.5" width="81" height="17" rx="8.5" stroke="#FF4646"/>
<path d="M10.88 13.06C10.36 13.06 9.868 12.988 9.404 12.844C8.94 12.692 8.576 12.504 8.312 12.28L8.696 11.608C8.952 11.8 9.28 11.968 9.68 12.112C10.08 12.248 10.5 12.316 10.94 12.316C11.54 12.316 11.972 12.224 12.236 12.04C12.5 11.848 12.632 11.596 12.632 11.284C12.632 11.052 12.556 10.872 12.404 10.744C12.26 10.608 12.068 10.508 11.828 10.444C11.588 10.372 11.32 10.312 11.024 10.264C10.728 10.216 10.432 10.16 10.136 10.096C9.848 10.032 9.584 9.94 9.344 9.82C9.104 9.692 8.908 9.52 8.756 9.304C8.612 9.088 8.54 8.8 8.54 8.44C8.54 8.096 8.636 7.788 8.828 7.516C9.02 7.244 9.3 7.032 9.668 6.88C10.044 6.72 10.5 6.64 11.036 6.64C11.444 6.64 11.852 6.696 12.26 6.808C12.668 6.912 13.004 7.052 13.268 7.228L12.896 7.912C12.616 7.72 12.316 7.584 11.996 7.504C11.676 7.416 11.356 7.372 11.036 7.372C10.468 7.372 10.048 7.472 9.776 7.672C9.512 7.864 9.38 8.112 9.38 8.416C9.38 8.656 9.452 8.844 9.596 8.98C9.748 9.116 9.944 9.224 10.184 9.304C10.432 9.376 10.7 9.436 10.988 9.484C11.284 9.532 11.576 9.592 11.864 9.664C12.16 9.728 12.428 9.82 12.668 9.94C12.916 10.052 13.112 10.216 13.256 10.432C13.408 10.64 13.484 10.916 13.484 11.26C13.484 11.628 13.38 11.948 13.172 12.22C12.972 12.484 12.676 12.692 12.284 12.844C11.9 12.988 11.432 13.06 10.88 13.06ZM17.6634 13.06C17.0394 13.06 16.4794 12.924 15.9834 12.652C15.4954 12.372 15.1114 11.992 14.8314 11.512C14.5514 11.024 14.4114 10.468 14.4114 9.844C14.4114 9.212 14.5514 8.656 14.8314 8.176C15.1114 7.696 15.4954 7.32 15.9834 7.048C16.4794 6.776 17.0394 6.64 17.6634 6.64C18.1994 6.64 18.6834 6.744 19.1154 6.952C19.5474 7.16 19.8874 7.472 20.1354 7.888L19.4994 8.32C19.2834 8 19.0154 7.764 18.6954 7.612C18.3754 7.46 18.0274 7.384 17.6514 7.384C17.2034 7.384 16.7994 7.488 16.4394 7.696C16.0794 7.896 15.7954 8.18 15.5874 8.548C15.3794 8.916 15.2754 9.348 15.2754 9.844C15.2754 10.34 15.3794 10.772 15.5874 11.14C15.7954 11.508 16.0794 11.796 16.4394 12.004C16.7994 12.204 17.2034 12.304 17.6514 12.304C18.0274 12.304 18.3754 12.228 18.6954 12.076C19.0154 11.924 19.2834 11.692 19.4994 11.38L20.1354 11.812C19.8874 12.22 19.5474 12.532 19.1154 12.748C18.6834 12.956 18.1994 13.06 17.6634 13.06ZM21.8091 13V6.7H22.6251V8.416L22.5411 8.116C22.7171 7.636 23.0131 7.272 23.4291 7.024C23.8451 6.768 24.3611 6.64 24.9771 6.64V7.468C24.9451 7.468 24.9131 7.468 24.8811 7.468C24.8491 7.46 24.8171 7.456 24.7851 7.456C24.1211 7.456 23.6011 7.66 23.2251 8.068C22.8491 8.468 22.6611 9.04 22.6611 9.784V13H21.8091ZM29.1492 13.06C28.4932 13.06 27.9172 12.924 27.4212 12.652C26.9252 12.372 26.5372 11.992 26.2572 11.512C25.9772 11.024 25.8372 10.468 25.8372 9.844C25.8372 9.22 25.9692 8.668 26.2332 8.188C26.5052 7.708 26.8732 7.332 27.3372 7.06C27.8092 6.78 28.3372 6.64 28.9212 6.64C29.5132 6.64 30.0372 6.776 30.4932 7.048C30.9572 7.312 31.3212 7.688 31.5852 8.176C31.8492 8.656 31.9812 9.212 31.9812 9.844C31.9812 9.884 31.9772 9.928 31.9692 9.976C31.9692 10.016 31.9692 10.06 31.9692 10.108H26.4852V9.472H31.5132L31.1772 9.724C31.1772 9.268 31.0772 8.864 30.8772 8.512C30.6852 8.152 30.4212 7.872 30.0852 7.672C29.7492 7.472 29.3612 7.372 28.9212 7.372C28.4892 7.372 28.1012 7.472 27.7572 7.672C27.4132 7.872 27.1452 8.152 26.9532 8.512C26.7612 8.872 26.6652 9.284 26.6652 9.748V9.88C26.6652 10.36 26.7692 10.784 26.9772 11.152C27.1932 11.512 27.4892 11.796 27.8652 12.004C28.2492 12.204 28.6852 12.304 29.1732 12.304C29.5572 12.304 29.9132 12.236 30.2412 12.1C30.5772 11.964 30.8652 11.756 31.1052 11.476L31.5852 12.028C31.3052 12.364 30.9532 12.62 30.5292 12.796C30.1132 12.972 29.6532 13.06 29.1492 13.06ZM36.3913 13.06C35.7353 13.06 35.1593 12.924 34.6633 12.652C34.1673 12.372 33.7793 11.992 33.4993 11.512C33.2193 11.024 33.0793 10.468 33.0793 9.844C33.0793 9.22 33.2113 8.668 33.4753 8.188C33.7473 7.708 34.1153 7.332 34.5793 7.06C35.0513 6.78 35.5793 6.64 36.1633 6.64C36.7553 6.64 37.2793 6.776 37.7353 7.048C38.1993 7.312 38.5633 7.688 38.8273 8.176C39.0913 8.656 39.2233 9.212 39.2233 9.844C39.2233 9.884 39.2193 9.928 39.2113 9.976C39.2113 10.016 39.2113 10.06 39.2113 10.108H33.7273V9.472H38.7553L38.4193 9.724C38.4193 9.268 38.3193 8.864 38.1193 8.512C37.9273 8.152 37.6633 7.872 37.3273 7.672C36.9913 7.472 36.6033 7.372 36.1633 7.372C35.7313 7.372 35.3433 7.472 34.9993 7.672C34.6553 7.872 34.3873 8.152 34.1953 8.512C34.0033 8.872 33.9073 9.284 33.9073 9.748V9.88C33.9073 10.36 34.0113 10.784 34.2193 11.152C34.4353 11.512 34.7313 11.796 35.1073 12.004C35.4913 12.204 35.9273 12.304 36.4153 12.304C36.7993 12.304 37.1553 12.236 37.4833 12.1C37.8193 11.964 38.1073 11.756 38.3473 11.476L38.8273 12.028C38.5473 12.364 38.1953 12.62 37.7713 12.796C37.3553 12.972 36.8953 13.06 36.3913 13.06ZM44.1735 6.64C44.6855 6.64 45.1335 6.74 45.5175 6.94C45.9095 7.132 46.2135 7.428 46.4295 7.828C46.6535 8.228 46.7655 8.732 46.7655 9.34V13H45.9135V9.424C45.9135 8.76 45.7455 8.26 45.4095 7.924C45.0815 7.58 44.6175 7.408 44.0175 7.408C43.5695 7.408 43.1775 7.5 42.8415 7.684C42.5135 7.86 42.2575 8.12 42.0735 8.464C41.8975 8.8 41.8095 9.208 41.8095 9.688V13H40.9575V6.7H41.7735V8.428L41.6415 8.104C41.8415 7.648 42.1615 7.292 42.6015 7.036C43.0415 6.772 43.5655 6.64 44.1735 6.64ZM50.7589 13.06C50.2389 13.06 49.7469 12.988 49.2829 12.844C48.8189 12.692 48.4549 12.504 48.1909 12.28L48.5749 11.608C48.8309 11.8 49.1589 11.968 49.5589 12.112C49.9589 12.248 50.3789 12.316 50.8189 12.316C51.4189 12.316 51.8509 12.224 52.1149 12.04C52.3789 11.848 52.5109 11.596 52.5109 11.284C52.5109 11.052 52.4349 10.872 52.2829 10.744C52.1389 10.608 51.9469 10.508 51.7069 10.444C51.4669 10.372 51.1989 10.312 50.9029 10.264C50.6069 10.216 50.3109 10.16 50.0149 10.096C49.7269 10.032 49.4629 9.94 49.2229 9.82C48.9829 9.692 48.7869 9.52 48.6349 9.304C48.4909 9.088 48.4189 8.8 48.4189 8.44C48.4189 8.096 48.5149 7.788 48.7069 7.516C48.8989 7.244 49.1789 7.032 49.5469 6.88C49.9229 6.72 50.3789 6.64 50.9149 6.64C51.3229 6.64 51.7309 6.696 52.1389 6.808C52.5469 6.912 52.8829 7.052 53.1469 7.228L52.7749 7.912C52.4949 7.72 52.1949 7.584 51.8749 7.504C51.5549 7.416 51.2349 7.372 50.9149 7.372C50.3469 7.372 49.9269 7.472 49.6549 7.672C49.3909 7.864 49.2589 8.112 49.2589 8.416C49.2589 8.656 49.3309 8.844 49.4749 8.98C49.6269 9.116 49.8229 9.224 50.0629 9.304C50.3109 9.376 50.5789 9.436 50.8669 9.484C51.1629 9.532 51.4549 9.592 51.7429 9.664C52.0389 9.728 52.3069 9.82 52.5469 9.94C52.7949 10.052 52.9909 10.216 53.1349 10.432C53.2869 10.64 53.3629 10.916 53.3629 11.26C53.3629 11.628 53.2589 11.948 53.0509 12.22C52.8509 12.484 52.5549 12.692 52.1629 12.844C51.7789 12.988 51.3109 13.06 50.7589 13.06ZM58.1423 6.64C58.6543 6.64 59.1023 6.74 59.4863 6.94C59.8783 7.132 60.1823 7.428 60.3983 7.828C60.6223 8.228 60.7343 8.732 60.7343 9.34V13H59.8823V9.424C59.8823 8.76 59.7143 8.26 59.3783 7.924C59.0503 7.58 58.5863 7.408 57.9863 7.408C57.5383 7.408 57.1463 7.5 56.8103 7.684C56.4823 7.86 56.2263 8.12 56.0423 8.464C55.8663 8.8 55.7783 9.208 55.7783 9.688V13H54.9263V4.096H55.7783V8.428L55.6103 8.104C55.8103 7.648 56.1303 7.292 56.5703 7.036C57.0103 6.772 57.5343 6.64 58.1423 6.64ZM65.6037 13.06C64.9957 13.06 64.4477 12.924 63.9597 12.652C63.4797 12.372 63.0997 11.992 62.8197 11.512C62.5397 11.024 62.3997 10.468 62.3997 9.844C62.3997 9.212 62.5397 8.656 62.8197 8.176C63.0997 7.696 63.4797 7.32 63.9597 7.048C64.4397 6.776 64.9877 6.64 65.6037 6.64C66.2277 6.64 66.7797 6.776 67.2597 7.048C67.7477 7.32 68.1277 7.696 68.3997 8.176C68.6797 8.656 68.8197 9.212 68.8197 9.844C68.8197 10.468 68.6797 11.024 68.3997 11.512C68.1277 11.992 67.7477 12.372 67.2597 12.652C66.7717 12.924 66.2197 13.06 65.6037 13.06ZM65.6037 12.304C66.0597 12.304 66.4637 12.204 66.8157 12.004C67.1677 11.796 67.4437 11.508 67.6437 11.14C67.8517 10.764 67.9557 10.332 67.9557 9.844C67.9557 9.348 67.8517 8.916 67.6437 8.548C67.4437 8.18 67.1677 7.896 66.8157 7.696C66.4637 7.488 66.0637 7.384 65.6157 7.384C65.1677 7.384 64.7677 7.488 64.4157 7.696C64.0637 7.896 63.7837 8.18 63.5757 8.548C63.3677 8.916 63.2637 9.348 63.2637 9.844C63.2637 10.332 63.3677 10.764 63.5757 11.14C63.7837 11.508 64.0637 11.796 64.4157 12.004C64.7677 12.204 65.1637 12.304 65.6037 12.304ZM72.5511 13.06C71.9591 13.06 71.5031 12.9 71.1831 12.58C70.8631 12.26 70.7031 11.808 70.7031 11.224V5.308H71.5551V11.176C71.5551 11.544 71.6471 11.828 71.8311 12.028C72.0231 12.228 72.2951 12.328 72.6471 12.328C73.0231 12.328 73.3351 12.22 73.5831 12.004L73.8831 12.616C73.7151 12.768 73.5111 12.88 73.2711 12.952C73.0391 13.024 72.7991 13.06 72.5511 13.06ZM69.5751 7.408V6.7H73.4751V7.408H69.5751Z" fill="#FF4646"/>
</svg>
