<svg width="140" height="140" viewBox="0 0 140 140" fill="none" xmlns="http://www.w3.org/2000/svg">
<path d="M24 56.4977C24 60.6367 20.6403 64 16.5 64C12.3597 64 9 60.6414 9 56.4977C9 52.354 12.3597 49 16.5 49C20.6403 49 24 52.3586 24 56.4977Z" fill="#FF4646"/>
<path d="M47 33.4977C47 37.6367 43.6403 41 39.5 41C35.3597 41 32 37.6414 32 33.4977C32 29.354 35.3597 26 39.5 26C43.6403 26 47 29.3586 47 33.4977Z" fill="#FF4646"/>
<path fill-rule="evenodd" clip-rule="evenodd" d="M69.5 62.228C57.7518 62.228 48.228 71.7518 48.228 83.5C48.228 95.2482 57.7518 104.772 69.5 104.772C81.2482 104.772 90.772 95.2482 90.772 83.5C90.772 71.7518 81.2482 62.228 69.5 62.228ZM30 83.5C30 61.6848 47.6847 44 69.5 44C91.3153 44 109 61.6848 109 83.5C109 105.315 91.3153 123 69.5 123C47.6847 123 30 105.315 30 83.5Z" fill="#FF4646"/>
<rect x="119" y="18" width="12" height="28" fill="#FF4646"/>
<rect x="119" y="52" width="12" height="12" fill="#FF4646"/>
</svg>
