<svg width="20" height="20" viewBox="0 0 20 20" fill="none" xmlns="http://www.w3.org/2000/svg">
<path d="M1.51562 12.6641C1.51562 12.717 1.65906 18 7.992 18C9.92135 18 11.7034 17.309 13.1821 16.0164C14.6313 17.1253 16.5996 18 19.2025 18V14.4827C17.5655 14.4827 16.2948 13.9971 15.3259 13.3457C16.4453 11.3754 17.1001 9.1148 17.1001 6.81919C17.1009 3.10496 15.3711 1 12.7963 1C10.2215 1 8.57119 2.97812 8.57119 6.50325C8.57119 8.99263 9.41465 11.4626 10.8451 13.5395C10.1077 14.0858 9.16676 14.4827 7.99122 14.4827C5.04302 14.4827 5.10928 12.9761 5.09135 12.6734H5.08979M12.9849 10.7505C12.2249 9.3965 11.7743 7.97322 11.7743 6.50325C11.7743 6.40676 11.786 4.51735 12.7963 4.51735C13.6655 4.51735 13.897 5.81923 13.897 6.81919C13.897 8.2059 13.5657 9.47666 12.9849 10.7505Z" fill="#FF4646"/>
<path d="M3.57576 8.46717C3.57576 9.17791 2.99902 9.75545 2.28828 9.75545C1.57753 9.75545 1 9.17791 1 8.46717C1 7.75642 1.57673 7.17969 2.28748 7.17969C2.99823 7.17969 3.57496 7.75642 3.57496 8.46717" fill="#FF4646"/>
<path d="M7.52498 4.51795C7.52498 5.2287 6.94806 5.80623 6.2371 5.80623C5.52613 5.80623 4.94922 5.22949 4.94922 4.51795C4.94922 3.8064 5.52613 3.23047 6.2371 3.23047C6.94806 3.23047 7.52498 3.8072 7.52498 4.51795Z" fill="#FF4646"/>
</svg>
