<svg width="92" height="92" viewBox="0 0 92 92" fill="none" xmlns="http://www.w3.org/2000/svg">
<g filter="url(#filter0_d_2110_148007)">
<rect x="20" y="20" width="52" height="52" rx="8" fill="#FF4646"/>
</g>
<g clip-path="url(#clip0_2110_148007)">
<path d="M55.125 35.875V55.125H35.875V35.875H55.125ZM55.125 33.125H35.875C34.3625 33.125 33.125 34.3625 33.125 35.875V55.125C33.125 56.6375 34.3625 57.875 35.875 57.875H55.125C56.6375 57.875 57.875 56.6375 57.875 55.125V35.875C57.875 34.3625 56.6375 33.125 55.125 33.125ZM48.4425 45.3075L44.3175 50.6287L41.375 47.0675L37.25 52.375H53.75L48.4425 45.3075Z" fill="white"/>
<circle cx="56" cy="35" r="7" fill="#FF4646"/>
<circle cx="55" cy="36" r="4" fill="white"/>
<path d="M54.625 38V34.91L55.13 35.39H54.025V34.5H55.805V38H54.625Z" fill="#FF4646"/>
</g>
<defs>
<filter id="filter0_d_2110_148007" x="0" y="0" width="92" height="92" filterUnits="userSpaceOnUse" color-interpolation-filters="sRGB">
<feFlood flood-opacity="0" result="BackgroundImageFix"/>
<feColorMatrix in="SourceAlpha" type="matrix" values="0 0 0 0 0 0 0 0 0 0 0 0 0 0 0 0 0 0 127 0" result="hardAlpha"/>
<feOffset/>
<feGaussianBlur stdDeviation="10"/>
<feComposite in2="hardAlpha" operator="out"/>
<feColorMatrix type="matrix" values="0 0 0 0 0 0 0 0 0 0 0 0 0 0 0 0 0 0 0.05 0"/>
<feBlend mode="normal" in2="BackgroundImageFix" result="effect1_dropShadow_2110_148007"/>
<feBlend mode="normal" in="SourceGraphic" in2="effect1_dropShadow_2110_148007" result="shape"/>
</filter>
<clipPath id="clip0_2110_148007">
<rect width="33" height="33" fill="white" transform="translate(29 29)"/>
</clipPath>
</defs>
</svg>
