<svg width="26" height="26" viewBox="0 0 26 26" fill="none" xmlns="http://www.w3.org/2000/svg">
<path fill-rule="evenodd" clip-rule="evenodd" d="M6.875 7.8125C6.875 7.50184 7.12684 7.25 7.4375 7.25H18.6875C18.9982 7.25 19.25 7.50184 19.25 7.8125V20.5625C19.25 20.8732 18.9982 21.125 18.6875 21.125H7.4375C7.12684 21.125 6.875 20.8732 6.875 20.5625V7.8125ZM8 8.375V20H18.125V8.375H8Z" fill="#8B8B8B"/>
<path fill-rule="evenodd" clip-rule="evenodd" d="M11.5625 11C11.8732 11 12.125 11.2518 12.125 11.5625V16.4375C12.125 16.7482 11.8732 17 11.5625 17C11.2518 17 11 16.7482 11 16.4375V11.5625C11 11.2518 11.2518 11 11.5625 11Z" fill="#8B8B8B"/>
<path fill-rule="evenodd" clip-rule="evenodd" d="M14.5625 11C14.8732 11 15.125 11.2518 15.125 11.5625V16.4375C15.125 16.7482 14.8732 17 14.5625 17C14.2518 17 14 16.7482 14 16.4375V11.5625C14 11.2518 14.2518 11 14.5625 11Z" fill="#8B8B8B"/>
<path fill-rule="evenodd" clip-rule="evenodd" d="M5 7.8125C5 7.50184 5.25184 7.25 5.5625 7.25H20.5625C20.8732 7.25 21.125 7.50184 21.125 7.8125C21.125 8.12316 20.8732 8.375 20.5625 8.375H5.5625C5.25184 8.375 5 8.12316 5 7.8125Z" fill="#8B8B8B"/>
<path fill-rule="evenodd" clip-rule="evenodd" d="M10.8026 5.29212C10.9014 5.11198 11.0905 5 11.2959 5H14.8539C15.0611 5 15.2514 5.11384 15.3494 5.29632L16.558 7.54632C16.6517 7.72065 16.6468 7.93135 16.5453 8.10119C16.4437 8.27102 16.2604 8.375 16.0625 8.375H10.0625C9.86376 8.375 9.67978 8.27013 9.57851 8.09913C9.47724 7.92813 9.47372 7.71639 9.56925 7.54212L10.8026 5.29212ZM11.629 6.125L11.0123 7.25H15.1218L14.5175 6.125H11.629Z" fill="#8B8B8B"/>
</svg>
