<svg width="141" height="40" viewBox="0 0 141 40" fill="none" xmlns="http://www.w3.org/2000/svg">
<rect x="0.5" y="0.5" width="140" height="39" rx="7.5" fill="white" stroke="#FF4646"/>
<path d="M42.6094 13.8906C40.4453 13.8828 38.875 15.2734 38.875 17.2031C38.875 19.1562 40.4453 20.5469 42.6094 20.5469C44.4531 20.5469 45.9062 19.4766 46.2422 17.8906H48.7812V20.8438H50.5156V13.2656H48.7812V16.4844H46.2266C45.875 14.9375 44.4375 13.8828 42.6094 13.8906ZM40.5312 17.2031C40.5312 16.0703 41.3906 15.3359 42.6094 15.3438C43.7969 15.3359 44.6484 16.0703 44.6562 17.2031C44.6484 18.3359 43.7969 19.0859 42.6094 19.0781C41.3906 19.0859 40.5312 18.3359 40.5312 17.2031ZM41.2031 27.2188H50.5156V21.5H48.7812V23H42.9219V21.5H41.2031V27.2188ZM42.9219 25.8125V24.3438H48.7812V25.8125H42.9219ZM65.4062 21.2656H52.5V22.6719H58.0625V27.375H59.7812V22.6719H65.4062V21.2656ZM54.0781 19.6094H63.8281V13.9844H54.0781V19.6094ZM55.7812 18.25V15.375H62.0938V18.25H55.7812ZM77.4844 14.6562H71V16.0625H75.7578C75.7031 16.8047 75.5859 17.5 75.4062 18.1641L70.2656 18.4844L70.4844 19.9844L74.8828 19.5703C74.0625 21.2422 72.6016 22.6562 70.1562 23.8594L71.1094 25.1719C76.3125 22.5859 77.4766 18.9219 77.4844 14.6562ZM79.4688 27.3594H81.2031V20.2188H83.2969V18.7969H81.2031V13.2656H79.4688V27.3594ZM95.4375 19.8906H87.25V15.9062H95.3281V14.5H85.5312V21.2812H95.4375V19.8906ZM83.9688 25.5938H96.875V24.1562H83.9688V25.5938ZM113.375 13.2656H111.641V20.5469H113.375V13.2656ZM101.828 18.8125L102.016 20.1875C104.484 20.1875 107.734 20.1016 110.547 19.6562L110.469 18.4062C109.875 18.4766 109.25 18.5391 108.609 18.5859V15.5156H109.875V14.1719H102.203V15.5156H103.438V18.7969C102.875 18.8047 102.336 18.8125 101.828 18.8125ZM103.906 22.5H111.656V23.5156H103.938V27.2656H113.828V25.8906H105.656V24.7812H113.375V21.1406H103.906V22.5ZM105.109 18.7578V15.5156H106.953V18.6875C106.336 18.7188 105.719 18.7422 105.109 18.7578ZM127.266 13.2656H125.547V18.375H122.891V19.7812H125.547V27.4062H127.266V13.2656ZM116.062 24.1562H117.172C119.695 24.1406 121.508 24.0625 123.562 23.75L123.391 22.3438C121.57 22.6328 119.961 22.7109 117.812 22.7188V19.8125H122.109V18.4375H117.812V15.9062H122.672V14.4844H116.062V24.1562Z" fill="#FF4646"/>
<line x1="12" y1="16.5356" x2="22" y2="16.5356" stroke="#FF4646" stroke-width="1.5"/>
<line x1="32" y1="23.75" x2="22" y2="23.75" stroke="#FF4646" stroke-width="1.5"/>
<line x1="26.2852" y1="16.5356" x2="31.9994" y2="16.5356" stroke="#FF4646" stroke-width="1.5"/>
<line x1="17.7148" y1="23.75" x2="12.0006" y2="23.75" stroke="#FF4646" stroke-width="1.5"/>
<line x1="25.6074" y1="13" x2="25.6074" y2="20.1429" stroke="#FF4646" stroke-width="1.5"/>
<line x1="18.3926" y1="27.2856" x2="18.3926" y2="20.1428" stroke="#FF4646" stroke-width="1.5"/>
</svg>
